<?xml version="1.0" standalone="no"?>
<!DOCTYPE svg PUBLIC "-//W3C//DTD SVG 20010904//EN"
 "http://www.w3.org/TR/2001/REC-SVG-20010904/DTD/svg10.dtd">
<svg version="1.0" xmlns="http://www.w3.org/2000/svg"
 width="400.000000pt" height="148.000000pt" viewBox="0 0 400.000000 148.000000"
 preserveAspectRatio="xMidYMid meet">

<g transform="translate(0.000000,148.000000) scale(0.100000,-0.100000)"
fill="#000000" stroke="none">
<path d="M313 1361 c-102 -35 -176 -109 -206 -205 -9 -30 -12 -150 -12 -431
l0 -390 34 -63 c40 -73 74 -105 151 -141 l55 -26 1645 -3 c1489 -2 1650 -1
1694 14 96 31 170 101 206 194 11 27 15 124 18 413 4 426 2 442 -67 533 -26
35 -56 59 -105 84 l-69 35 -1646 2 c-1565 2 -1649 2 -1698 -16z m1457 -113
c-1 -7 -9 -53 -20 -103 -10 -49 -17 -91 -16 -92 1 -2 20 6 42 18 65 34 136 11
171 -54 20 -38 23 -150 5 -213 -14 -50 -48 -100 -84 -127 -40 -30 -117 -29
-158 2 -26 19 -34 21 -41 10 -5 -8 -9 -17 -9 -21 0 -5 -20 -8 -45 -8 -36 0
-45 3 -45 18 0 17 85 515 95 560 5 19 12 22 55 22 34 0 50 -4 50 -12z m418
-14 c32 -22 27 -73 -9 -93 -24 -13 -29 -13 -53 2 -34 22 -36 69 -4 91 28 20
38 20 66 0z m242 -66 c0 -7 -4 -30 -9 -50 l-9 -38 34 0 c36 0 41 -10 28 -57
-5 -18 -14 -23 -40 -23 -38 0 -35 7 -59 -136 -17 -105 -14 -124 24 -124 25 0
26 -2 23 -39 -4 -45 -27 -57 -88 -45 -73 14 -87 66 -59 224 20 115 20 120 -10
120 -20 0 -25 5 -25 24 0 41 11 56 41 56 25 0 29 4 34 38 11 62 11 62 65 62
33 0 50 -4 50 -12z m1130 0 c0 -7 -4 -30 -9 -50 l-9 -38 34 0 c36 0 41 -10 28
-57 -5 -18 -14 -23 -40 -23 -38 0 -35 7 -59 -139 -9 -51 -14 -100 -11 -107 3
-8 17 -14 31 -14 22 0 25 -4 25 -39 0 -33 -4 -40 -26 -45 -40 -10 -93 4 -114
31 -24 31 -25 77 -5 193 20 115 20 120 -10 120 -20 0 -25 5 -25 24 0 41 11 56
41 56 25 0 29 4 34 38 11 62 11 62 65 62 33 0 50 -4 50 -12z m-2590 -69 c27
-6 50 -14 50 -17 0 -4 -4 -24 -9 -45 -8 -32 -6 -39 7 -44 32 -11 82 -54 97
-83 30 -58 10 -144 -42 -176 -15 -10 -30 -19 -32 -21 -2 -1 8 -16 23 -33 19
-24 26 -43 26 -76 0 -96 -52 -154 -145 -162 -53 -4 -53 -4 -59 -43 -3 -22 -10
-39 -14 -39 -4 1 -34 7 -67 14 l-60 12 3 41 3 41 -51 7 c-28 4 -53 12 -55 19
-2 6 20 133 49 281 58 300 46 276 134 262 40 -7 42 -6 42 17 0 58 12 64 100
45z m1845 -23 c62 -26 72 -78 45 -240 -33 -195 -24 -176 -81 -176 -33 0 -49 4
-49 13 0 6 9 64 20 127 31 178 27 200 -36 200 -61 0 -72 -20 -101 -187 l-27
-153 -54 0 c-39 0 -53 3 -49 13 2 6 19 101 38 210 l33 197 48 0 c40 0 48 -3
48 -19 0 -17 3 -17 47 5 54 28 71 29 118 10z m432 -11 c50 -33 79 -114 67
-192 l-6 -43 -129 0 c-123 0 -129 -1 -129 -20 0 -12 11 -32 25 -45 30 -31 87
-33 130 -5 29 19 29 19 52 -2 33 -31 29 -44 -23 -74 -92 -54 -214 -30 -262 52
-20 34 -22 50 -19 120 5 121 46 184 145 220 43 16 115 11 149 -11z m-1060 3
c-2 -7 -19 -102 -38 -210 l-33 -198 -54 0 c-53 0 -54 0 -48 28 11 51 66 372
66 382 0 6 25 10 56 10 41 0 55 -3 51 -12z m146 -553 c4 -25 9 -56 13 -70 4
-15 2 -25 -5 -25 -6 0 -11 7 -11 15 0 22 -56 20 -69 -2 -5 -10 -12 -15 -16
-12 -9 9 57 139 71 139 6 0 14 -20 17 -45z m132 29 c9 -9 13 -19 10 -22 -3 -3
-11 0 -17 6 -31 31 -68 -2 -68 -59 0 -25 27 -36 51 -21 30 19 36 13 10 -8 -29
-25 -43 -25 -66 0 -23 25 -13 83 18 105 27 19 42 19 62 -1z m110 0 c9 -9 13
-19 10 -22 -3 -3 -11 0 -17 6 -31 31 -68 -2 -68 -59 0 -25 27 -36 51 -21 30
19 36 13 10 -8 -29 -25 -43 -25 -66 0 -23 25 -13 83 18 105 27 19 42 19 62 -1z
m115 6 c0 -5 -16 -10 -35 -10 -28 0 -35 -4 -35 -20 0 -15 7 -20 25 -20 34 0
32 -18 -2 -22 -17 -2 -29 -10 -31 -20 -3 -14 3 -18 27 -18 17 0 31 -4 31 -10
0 -5 -19 -10 -41 -10 l-41 0 7 57 c4 31 9 62 12 70 6 15 83 18 83 3z m78 -2
c31 -31 3 -78 -47 -78 -16 0 -21 -6 -21 -25 0 -14 -5 -25 -11 -25 -11 0 -5 93
8 127 6 16 55 17 71 1z m132 3 c0 -5 -10 -11 -22 -13 -20 -3 -24 -12 -32 -60
-4 -32 -12 -58 -17 -58 -11 0 -11 21 0 78 7 37 6 42 -10 42 -11 0 -19 5 -19
10 0 6 23 10 50 10 28 0 50 -4 50 -9z m100 -1 c0 -5 -16 -10 -35 -10 -28 0
-35 -4 -35 -20 0 -15 7 -20 25 -20 34 0 32 -18 -2 -22 -17 -2 -29 -10 -31 -20
-3 -14 3 -18 27 -18 17 0 31 -4 31 -10 0 -5 -19 -10 -41 -10 l-41 0 7 57 c4
31 9 62 12 70 6 15 83 18 83 3z m72 -7 c41 -37 2 -123 -58 -123 -26 0 -26 0
-19 57 4 31 9 62 12 70 7 18 43 16 65 -4z m103 -13 c-6 -28 -5 -30 23 -30 25
0 30 5 36 30 3 17 11 30 17 30 6 0 9 -6 6 -13 -3 -8 -8 -39 -12 -70 -8 -60
-25 -78 -25 -27 0 27 -3 30 -30 30 -27 0 -30 -3 -30 -30 0 -16 -5 -30 -11 -30
-11 0 -5 93 8 127 10 26 25 13 18 -17z m185 20 c0 -5 -16 -10 -35 -10 -28 0
-35 -4 -35 -20 0 -15 7 -20 25 -20 34 0 32 -18 -2 -22 -17 -2 -29 -10 -31 -20
-3 -14 3 -18 27 -18 17 0 31 -4 31 -10 0 -5 -19 -10 -41 -10 l-41 0 7 57 c4
31 9 62 12 70 6 15 83 18 83 3z m71 0 c22 -13 26 -58 5 -66 -11 -4 -13 -12 -5
-31 11 -31 11 -33 -1 -33 -6 0 -15 11 -20 25 -5 14 -16 25 -25 25 -9 0 -15 -9
-15 -25 0 -14 -5 -25 -11 -25 -11 0 -5 93 8 127 6 16 37 17 64 3z m129 0 c0
-5 -16 -10 -35 -10 -28 0 -35 -4 -35 -20 0 -15 7 -20 25 -20 34 0 32 -18 -2
-22 -17 -2 -29 -10 -31 -20 -3 -14 3 -18 27 -18 17 0 31 -4 31 -10 0 -5 -19
-10 -41 -10 l-41 0 7 57 c4 31 9 62 12 70 6 15 83 18 83 3z"/>
<path d="M1742 977 c-16 -17 -27 -50 -38 -111 -14 -82 -14 -90 2 -107 25 -27
85 -25 111 4 45 49 61 188 25 220 -27 25 -74 21 -100 -6z"/>
<path d="M841 878 c-17 -79 -16 -85 27 -92 97 -16 132 0 132 58 0 42 -12 52
-88 70 l-61 14 -10 -50z"/>
<path d="M805 688 c-4 -13 -25 -116 -25 -122 0 -2 29 -9 64 -15 95 -17 126 0
126 68 0 36 -24 57 -80 70 -60 14 -80 14 -85 -1z"/>
<path d="M3110 987 c-19 -14 -50 -58 -50 -69 0 -5 36 -8 80 -8 77 0 80 1 80
23 0 38 -27 67 -63 67 -18 0 -39 -6 -47 -13z"/>
<path d="M2292 495 c-10 -22 -9 -25 8 -25 13 0 20 7 20 19 0 30 -16 33 -28 6z"/>
<path d="M2710 515 c0 -20 5 -25 25 -25 20 0 25 5 25 25 0 20 -5 25 -25 25
-20 0 -25 -5 -25 -25z"/>
<path d="M3020 522 c0 -11 -3 -34 -6 -51 -6 -27 -4 -31 14 -31 45 0 58 92 15
98 -17 3 -23 -2 -23 -16z"/>
<path d="M3380 514 c0 -21 4 -25 23 -22 14 2 23 11 25 26 3 18 -1 22 -22 22
-21 0 -26 -5 -26 -26z"/>
</g>
</svg>
