<?xml version="1.0" standalone="no"?>
<!DOCTYPE svg PUBLIC "-//W3C//DTD SVG 20010904//EN"
 "http://www.w3.org/TR/2001/REC-SVG-20010904/DTD/svg10.dtd">
<svg version="1.0" xmlns="http://www.w3.org/2000/svg"
 width="400.000000pt" height="148.000000pt" viewBox="0 0 400.000000 148.000000"
 preserveAspectRatio="xMidYMid meet">

<g transform="translate(0.000000,148.000000) scale(0.100000,-0.100000)"
fill="#000000" stroke="none">
<path d="M840 1249 c-379 -53 -575 -470 -369 -786 177 -271 560 -312 789 -83
229 229 188 612 -83 789 -98 64 -229 95 -337 80z m140 -150 c27 -6 50 -14 50
-17 0 -4 -4 -24 -9 -45 -8 -32 -6 -39 7 -44 32 -11 82 -54 97 -83 30 -58 10
-144 -42 -176 -15 -10 -30 -19 -32 -21 -2 -1 8 -16 23 -33 19 -24 26 -43 26
-76 0 -96 -52 -154 -145 -162 -53 -4 -53 -4 -59 -43 -3 -22 -10 -39 -14 -39
-4 1 -34 7 -67 14 l-60 12 3 41 3 41 -51 7 c-28 4 -53 12 -55 19 -2 6 20 133
49 281 58 300 46 276 134 262 40 -7 42 -6 42 17 0 58 12 64 100 45z"/>
<path d="M851 878 c-17 -79 -16 -85 27 -92 97 -16 132 0 132 58 0 42 -12 52
-88 70 l-61 14 -10 -50z"/>
<path d="M815 688 c-4 -13 -25 -116 -25 -122 0 -2 29 -9 64 -15 95 -17 126 0
126 68 0 36 -24 57 -80 70 -60 14 -80 14 -85 -1z"/>
<path d="M1665 1238 c-9 -44 -95 -549 -95 -564 0 -10 12 -14 45 -14 40 0 45 3
51 26 l6 25 22 -20 c82 -78 209 -27 252 101 21 66 22 171 1 220 -8 20 -27 44
-42 54 -38 25 -108 23 -145 -5 -17 -12 -30 -20 -30 -19 0 2 9 50 20 108 11 58
20 106 20 107 0 2 -22 3 -50 3 -43 0 -50 -3 -55 -22z m185 -257 c5 -11 10 -44
10 -73 0 -108 -36 -168 -100 -168 -24 0 -43 7 -54 19 -16 18 -17 27 -6 93 21
124 37 147 102 148 27 0 40 -5 48 -19z"/>
<path d="M2122 1234 c-32 -22 -30 -69 4 -91 24 -15 29 -15 53 -2 36 20 41 71
9 93 -28 20 -38 20 -66 0z"/>
<path d="M2326 1163 c-2 -10 -7 -33 -11 -50 -6 -28 -11 -33 -35 -33 -20 0 -29
-6 -34 -22 -12 -45 -7 -58 19 -58 30 0 31 -6 8 -141 -21 -129 -13 -166 40
-193 26 -12 48 -16 72 -12 33 7 35 9 35 46 0 36 -2 40 -25 40 -14 0 -28 6 -31
14 -3 7 2 56 11 107 24 146 21 139 59 139 30 0 34 4 40 31 9 48 8 49 -28 49
l-33 0 8 43 c4 23 8 45 9 50 0 4 -22 7 -49 7 -39 0 -51 -4 -55 -17z"/>
<path d="M3456 1163 c-2 -10 -7 -33 -11 -50 -6 -28 -11 -33 -35 -33 -20 0 -29
-6 -34 -22 -12 -45 -7 -58 19 -58 30 0 31 -6 8 -141 -21 -129 -13 -166 40
-193 26 -12 48 -16 72 -12 33 7 35 9 35 46 0 36 -2 40 -25 40 -14 0 -28 6 -31
14 -3 7 2 56 11 107 24 146 21 139 59 139 30 0 34 4 40 31 9 48 8 49 -28 49
l-33 0 8 43 c4 23 8 45 9 50 0 4 -22 7 -49 7 -39 0 -51 -4 -55 -17z"/>
<path d="M2717 1076 c-21 -8 -47 -22 -58 -32 -20 -18 -20 -18 -14 9 7 26 6 27
-39 27 -28 0 -48 -5 -51 -12 -2 -7 -19 -102 -38 -210 l-34 -198 51 0 51 0 27
152 c30 168 40 188 102 188 63 0 68 -29 36 -204 -11 -60 -20 -115 -20 -123 0
-9 15 -13 49 -13 57 0 49 -18 81 179 11 68 17 136 13 150 -13 55 -33 80 -71
90 -44 13 -38 13 -85 -3z"/>
<path d="M3096 1076 c-160 -59 -201 -318 -63 -396 57 -33 137 -33 195 0 51 29
56 42 31 74 l-20 25 -32 -19 c-48 -30 -110 -27 -136 6 -12 15 -21 35 -21 45 0
18 10 19 129 19 l128 0 7 46 c7 51 -6 113 -31 151 -33 50 -121 73 -187 49z
m106 -93 c10 -9 18 -29 18 -45 l0 -28 -80 0 c-44 0 -80 2 -80 5 0 15 32 65 47
74 27 16 74 13 95 -6z"/>
<path d="M2051 888 c-18 -106 -35 -201 -37 -210 -5 -16 2 -18 46 -18 31 0 52
5 55 13 2 6 19 101 38 210 l34 197 -52 0 -51 0 -33 -192z"/>
<path d="M2282 494 c-18 -37 -30 -69 -27 -73 4 -3 11 2 16 12 13 22 69 24 69
2 0 -8 4 -15 10 -15 5 0 7 14 4 33 -17 87 -20 101 -30 104 -5 2 -24 -27 -42
-63z m48 1 c0 -18 -5 -25 -20 -25 -17 0 -18 3 -8 25 6 14 15 25 20 25 4 0 8
-11 8 -25z"/>
<path d="M2413 545 c-31 -22 -41 -80 -18 -105 23 -25 37 -25 66 0 26 21 20 27
-10 8 -24 -15 -51 -4 -51 21 0 57 37 90 68 59 6 -6 14 -9 17 -6 8 8 -23 38
-38 38 -7 0 -22 -7 -34 -15z"/>
<path d="M2523 545 c-31 -22 -41 -80 -18 -105 23 -25 37 -25 66 0 26 21 20 27
-10 8 -24 -15 -51 -4 -51 21 0 57 37 90 68 59 6 -6 14 -9 17 -6 8 8 -23 38
-38 38 -7 0 -22 -7 -34 -15z"/>
<path d="M2617 538 c-3 -13 -9 -44 -12 -70 l-7 -48 41 0 c22 0 41 5 41 10 0 6
-13 10 -30 10 -23 0 -30 4 -30 20 0 16 7 20 30 20 17 0 30 5 30 10 0 6 -11 10
-25 10 -18 0 -25 5 -25 20 0 16 7 20 35 20 19 0 35 5 35 10 0 6 -18 10 -39 10
-32 0 -40 -4 -44 -22z"/>
<path d="M2707 538 c-15 -62 -19 -118 -8 -118 6 0 11 11 11 25 0 19 5 25 21
25 34 0 59 19 59 45 0 44 -73 64 -83 23z m63 -23 c0 -20 -5 -25 -25 -25 -20 0
-25 5 -25 25 0 20 5 25 25 25 20 0 25 -5 25 -25z"/>
<path d="M2810 550 c0 -5 8 -10 19 -10 16 0 17 -5 10 -42 -11 -57 -11 -78 0
-78 5 0 13 26 17 58 8 48 12 57 32 60 42 6 22 22 -28 22 -27 0 -50 -4 -50 -10z"/>
<path d="M2927 538 c-3 -13 -9 -44 -12 -70 l-7 -48 41 0 c22 0 41 5 41 10 0 6
-13 10 -30 10 -23 0 -30 4 -30 20 0 16 7 20 30 20 17 0 30 5 30 10 0 6 -11 10
-25 10 -18 0 -25 5 -25 20 0 16 7 20 35 20 19 0 35 5 35 10 0 6 -18 10 -39 10
-32 0 -40 -4 -44 -22z"/>
<path d="M3017 538 c-3 -13 -9 -44 -12 -70 -7 -47 -7 -48 19 -48 36 0 76 41
76 79 0 51 -72 85 -83 39z m61 -30 c4 -36 -14 -68 -40 -68 -18 0 -20 4 -14 31
3 17 6 40 6 51 0 32 44 20 48 -14z"/>
<path d="M3167 538 c-15 -62 -19 -118 -8 -118 6 0 11 14 11 30 0 27 3 30 30
30 27 0 30 -3 30 -30 0 -51 17 -33 25 27 4 31 9 62 12 70 3 7 1 13 -5 13 -6 0
-13 -13 -17 -30 -6 -25 -11 -30 -37 -30 -29 0 -30 2 -24 30 6 35 -9 41 -17 8z"/>
<path d="M3287 538 c-3 -13 -9 -44 -12 -70 l-7 -48 41 0 c22 0 41 5 41 10 0 6
-13 10 -30 10 -23 0 -30 4 -30 20 0 16 7 20 30 20 17 0 30 5 30 10 0 6 -11 10
-25 10 -18 0 -25 5 -25 20 0 16 7 20 35 20 19 0 35 5 35 10 0 6 -18 10 -39 10
-32 0 -40 -4 -44 -22z"/>
<path d="M3377 538 c-15 -62 -19 -118 -8 -118 6 0 11 11 11 25 0 18 5 25 19
25 12 0 21 -9 25 -25 4 -14 11 -25 16 -25 12 0 12 3 1 34 -7 18 -6 28 5 36 20
17 17 47 -5 60 -33 17 -58 12 -64 -12z m61 -20 c-2 -15 -11 -24 -25 -26 -19
-3 -23 1 -23 22 0 21 5 26 26 26 21 0 25 -4 22 -22z"/>
<path d="M3487 538 c-3 -13 -9 -44 -12 -70 l-7 -48 41 0 c22 0 41 5 41 10 0 6
-13 10 -30 10 -23 0 -30 4 -30 20 0 16 7 20 30 20 17 0 30 5 30 10 0 6 -11 10
-25 10 -18 0 -25 5 -25 20 0 16 7 20 35 20 19 0 35 5 35 10 0 6 -18 10 -39 10
-32 0 -40 -4 -44 -22z"/>
</g>
</svg>
