<?xml version="1.0" standalone="no"?>
<!DOCTYPE svg PUBLIC "-//W3C//DTD SVG 20010904//EN"
 "http://www.w3.org/TR/2001/REC-SVG-20010904/DTD/svg10.dtd">
<svg version="1.0" xmlns="http://www.w3.org/2000/svg"
 width="2000.000000pt" height="512.000000pt" viewBox="0 0 2000.000000 512.000000"
 preserveAspectRatio="xMidYMid meet">

<g transform="translate(0.000000,512.000000) scale(0.100000,-0.100000)"
fill="#000000" stroke="none">
<path d="M2378 5109 c-621 -42 -1217 -320 -1654 -770 -387 -400 -620 -883
-700 -1454 -23 -163 -23 -487 0 -650 80 -571 313 -1054 700 -1454 320 -330
717 -564 1161 -686 707 -194 1478 -70 2085 333 556 370 941 928 1084 1572 44
203 59 339 59 560 0 221 -15 357 -59 560 -143 644 -528 1202 -1084 1572 -368
245 -794 387 -1250 418 -159 11 -173 11 -342 -1z m506 -774 c181 -35 331 -66
333 -69 3 -3 -13 -101 -36 -218 -22 -118 -41 -218 -41 -224 0 -6 33 -23 73
-39 249 -95 438 -262 510 -450 62 -164 55 -390 -16 -560 -71 -170 -226 -305
-408 -354 l-60 -17 43 -24 c148 -81 253 -218 294 -380 24 -95 15 -266 -20
-389 -54 -189 -147 -327 -282 -421 -143 -99 -298 -140 -532 -140 -139 0 -142
0 -147 -23 -3 -12 -21 -100 -39 -195 -19 -95 -36 -175 -38 -177 -5 -5 -658
122 -665 129 -3 3 11 91 32 196 20 106 35 193 33 194 -2 2 -130 27 -285 57
-156 29 -283 58 -283 64 -1 28 534 2761 541 2770 6 5 109 -10 277 -43 147 -29
274 -52 283 -52 12 0 23 42 53 198 36 188 45 232 49 232 1 0 150 -29 331 -65z"/>
<path d="M2361 3438 c-40 -196 -121 -622 -121 -632 0 -9 75 -28 223 -57 191
-38 239 -44 347 -44 116 0 129 2 182 28 89 44 143 117 168 228 16 74 9 194
-15 243 -36 74 -116 134 -236 176 -53 18 -492 110 -526 110 -6 0 -16 -24 -22
-52z"/>
<path d="M2086 2022 c-38 -196 -71 -364 -73 -372 -4 -13 40 -25 249 -65 221
-44 269 -50 378 -50 123 0 126 0 188 34 112 61 167 153 186 309 8 62 -8 161
-34 211 -40 78 -129 144 -240 177 -47 14 -550 114 -573 114 -8 0 -35 -120 -81
-358z"/>
</g>
</svg>
