<?xml version="1.0" standalone="no"?>
<!DOCTYPE svg PUBLIC "-//W3C//DTD SVG 20010904//EN"
 "http://www.w3.org/TR/2001/REC-SVG-20010904/DTD/svg10.dtd">
<svg version="1.0" xmlns="http://www.w3.org/2000/svg"
 width="512.000000pt" height="512.000000pt" viewBox="0 0 512.000000 512.000000"
 preserveAspectRatio="xMidYMid meet">

<g transform="translate(0.000000,512.000000) scale(0.100000,-0.100000)"
fill="#000000" stroke="none">
<path d="M2546 4363 c-3 -16 -22 -112 -42 -214 l-36 -186 -167 33 c-91 17
-219 42 -283 55 -74 15 -121 20 -127 14 -7 -9 -542 -2742 -541 -2770 0 -6 127
-35 283 -64 155 -30 285 -56 288 -57 4 -2 -11 -88 -32 -191 -20 -104 -34 -191
-31 -195 9 -9 650 -133 656 -127 3 3 22 91 42 196 l38 190 145 2 c242 3 393
43 535 141 135 94 228 232 282 421 35 123 44 294 20 389 -41 162 -146 299
-294 380 l-43 24 60 17 c232 63 409 258 450 494 39 230 9 402 -97 552 -89 128
-259 250 -442 319 -41 15 -76 28 -77 29 -1 1 17 100 41 220 25 121 41 223 38
227 -7 7 -616 128 -645 128 -9 0 -18 -11 -21 -27z m75 -918 c302 -59 390 -91
471 -169 47 -45 68 -93 75 -169 16 -172 -50 -313 -175 -374 -53 -25 -66 -27
-182 -27 -108 -1 -156 5 -347 43 -148 29 -223 48 -223 57 0 10 81 436 121 632
6 28 16 52 22 52 7 0 114 -20 238 -45z m-185 -1115 c287 -56 328 -67 402 -104
153 -77 206 -220 160 -431 -22 -102 -78 -176 -170 -225 -62 -34 -65 -34 -188
-35 -110 0 -156 6 -378 50 -209 40 -253 52 -249 65 2 8 35 176 73 372 46 238
73 358 81 358 7 0 128 -23 269 -50z"/>
</g>
</svg>
