<?xml version="1.0" standalone="no"?>
<!DOCTYPE svg PUBLIC "-//W3C//DTD SVG 20010904//EN"
 "http://www.w3.org/TR/2001/REC-SVG-20010904/DTD/svg10.dtd">
<svg version="1.0" xmlns="http://www.w3.org/2000/svg"
 width="2000.000000pt" height="512.000000pt" viewBox="0 0 2000.000000 512.000000"
 preserveAspectRatio="xMidYMid meet">

<g transform="translate(0.000000,512.000000) scale(0.100000,-0.100000)"
fill="#000000" stroke="none">
<path d="M2378 5109 c-621 -42 -1217 -320 -1654 -770 -387 -400 -620 -883
-700 -1454 -23 -163 -23 -487 0 -650 80 -571 313 -1054 700 -1454 320 -330
717 -564 1161 -686 707 -194 1478 -70 2085 333 556 370 941 928 1084 1572 44
203 59 339 59 560 0 221 -15 357 -59 560 -143 644 -528 1202 -1084 1572 -368
245 -794 387 -1250 418 -159 11 -173 11 -342 -1z m506 -774 c181 -35 331 -66
333 -69 3 -3 -13 -101 -36 -218 -22 -118 -41 -218 -41 -224 0 -6 33 -23 73
-39 249 -95 438 -262 510 -450 62 -164 55 -390 -16 -560 -71 -170 -226 -305
-408 -354 l-60 -17 43 -24 c148 -81 253 -218 294 -380 24 -95 15 -266 -20
-389 -54 -189 -147 -327 -282 -421 -143 -99 -298 -140 -532 -140 -139 0 -142
0 -147 -23 -3 -12 -21 -100 -39 -195 -19 -95 -36 -175 -38 -177 -5 -5 -658
122 -665 129 -3 3 11 91 32 196 20 106 35 193 33 194 -2 2 -130 27 -285 57
-156 29 -283 58 -283 64 -1 28 534 2761 541 2770 6 5 109 -10 277 -43 147 -29
274 -52 283 -52 12 0 23 42 53 198 36 188 45 232 49 232 1 0 150 -29 331 -65z"/>
<path d="M2361 3438 c-40 -196 -121 -622 -121 -632 0 -9 75 -28 223 -57 191
-38 239 -44 347 -44 116 0 129 2 182 28 89 44 143 117 168 228 16 74 9 194
-15 243 -36 74 -116 134 -236 176 -53 18 -492 110 -526 110 -6 0 -16 -24 -22
-52z"/>
<path d="M2086 2022 c-38 -196 -71 -364 -73 -372 -4 -13 40 -25 249 -65 221
-44 269 -50 378 -50 123 0 126 0 188 34 112 61 167 153 186 309 8 62 -8 161
-34 211 -40 78 -129 144 -240 177 -47 14 -550 114 -573 114 -8 0 -35 -120 -81
-358z"/>
<path d="M6021 2772 c-173 -999 -329 -1899 -346 -2000 l-32 -182 336 2 336 3
49 140 c27 77 51 142 53 145 3 3 14 -9 25 -25 37 -54 154 -161 216 -199 133
-81 274 -116 460 -116 160 0 242 12 356 52 221 75 393 215 547 443 144 212
242 470 300 785 52 285 52 667 -1 895 -49 209 -146 391 -276 516 -92 88 -179
140 -299 179 -164 52 -402 54 -554 4 -117 -39 -237 -112 -337 -206 -35 -33
-64 -58 -64 -55 0 3 63 325 140 715 77 391 140 713 140 716 0 3 -165 6 -367 6
l-368 0 -314 -1818z m1402 34 c98 -50 148 -120 189 -263 50 -176 17 -595 -69
-882 -100 -332 -299 -511 -569 -511 -211 0 -341 69 -423 226 l-32 60 101 554
c55 304 104 558 107 564 24 40 118 135 173 175 63 46 174 95 235 104 17 3 75
4 130 3 89 -1 106 -4 158 -30z"/>
<path d="M9473 4516 c-99 -32 -198 -117 -241 -207 -69 -143 -34 -345 78 -450
80 -75 146 -102 265 -107 119 -5 183 10 261 62 109 73 165 173 172 307 7 134
-30 224 -125 309 -81 72 -140 94 -263 97 -69 2 -120 -2 -147 -11z"/>
<path d="M10676 3755 l-60 -345 -197 0 c-180 0 -198 -2 -203 -17 -3 -10 -23
-124 -45 -253 -23 -129 -43 -245 -46 -257 l-5 -23 201 0 201 0 -6 -27 c-33
-158 -229 -1416 -235 -1513 -26 -388 133 -655 444 -750 73 -23 97 -25 265 -25
160 0 199 3 287 24 100 24 103 25 108 55 7 45 45 480 45 517 0 29 -2 30 -29
24 -16 -3 -81 -7 -143 -7 -139 -2 -194 18 -224 80 -39 82 -33 129 95 889 67
392 121 717 121 722 0 8 77 11 234 11 215 0 235 1 240 18 3 9 23 125 46 257
23 132 44 248 46 258 5 16 -11 17 -230 17 -130 0 -236 1 -236 3 0 1 27 153 60
337 33 184 60 338 60 343 0 4 -165 7 -368 7 l-367 0 -59 -345z"/>
<path d="M18186 3755 l-60 -345 -197 0 c-180 0 -198 -2 -203 -17 -3 -10 -23
-124 -45 -253 -23 -129 -43 -245 -46 -257 l-5 -23 201 0 201 0 -6 -27 c-33
-158 -229 -1416 -235 -1513 -26 -388 133 -655 444 -750 73 -23 97 -25 265 -25
160 0 199 3 287 24 100 24 103 25 108 55 7 45 45 480 45 517 0 29 -2 30 -29
24 -16 -3 -81 -7 -143 -7 -139 -2 -194 18 -224 80 -39 82 -33 129 95 889 67
392 121 717 121 722 0 8 77 11 235 11 l235 0 5 23 c13 53 85 481 85 503 l0 24
-230 0 c-126 0 -230 1 -230 3 0 1 27 153 60 337 33 184 60 338 60 343 0 4
-165 7 -368 7 l-367 0 -59 -345z"/>
<path d="M13465 3440 c-193 -35 -372 -132 -543 -294 -44 -42 -72 -63 -69 -51
6 21 57 287 57 299 0 3 -154 5 -342 4 l-343 -3 -242 -1390 c-133 -765 -242
-1396 -242 -1402 -1 -10 78 -13 363 -13 339 0 365 1 370 18 2 9 82 456 176
992 l172 975 56 58 c72 74 178 146 262 178 57 21 81 24 190 23 120 0 128 -2
185 -31 109 -56 158 -154 157 -313 0 -62 -41 -329 -151 -983 -83 -495 -151
-903 -151 -908 0 -5 154 -9 364 -9 l364 0 6 27 c3 16 69 408 147 873 98 586
144 886 150 980 31 492 -141 826 -483 941 -85 29 -106 32 -248 35 -85 2 -177
-1 -205 -6z"/>
<path d="M15995 3431 c-291 -56 -564 -218 -764 -456 -214 -252 -348 -571 -397
-945 -22 -172 -15 -447 16 -575 116 -490 460 -819 939 -899 109 -18 356 -21
464 -6 229 34 466 127 628 247 57 43 170 157 207 210 l22 31 -166 206 -166
206 -51 -46 c-64 -58 -177 -138 -237 -169 -107 -54 -207 -77 -357 -83 -126 -4
-149 -2 -215 18 -93 28 -148 61 -214 127 -91 90 -154 256 -154 404 l0 59 863
0 863 0 25 183 c27 209 32 473 10 597 -65 372 -257 657 -537 799 -162 82 -305
111 -534 110 -101 -1 -186 -7 -245 -18z m341 -602 c185 -34 296 -186 295 -401
0 -51 -4 -106 -9 -123 l-8 -30 -502 -3 c-342 -1 -502 1 -502 8 0 22 101 220
149 292 85 126 206 219 330 254 58 16 170 17 247 3z"/>
<path d="M9105 3388 c-3 -13 -111 -635 -240 -1383 -129 -748 -238 -1372 -241
-1388 l-6 -27 371 0 c204 0 371 1 371 3 0 7 480 2774 485 2795 l5 22 -370 0
-370 0 -5 -22z"/>
</g>
</svg>
